# This file uses centimeters as units for non-parametric coordinates.

mtllib Vinyl.mtl
g default
v 3.636905 3.471735 -9.629086
v 3.636905 3.492719 -9.608101
v 3.615921 3.492719 -9.629086
v 3.699866 3.492719 -9.629086
v 3.678882 3.492719 -9.608101
v 3.678882 3.471735 -9.629086
v 3.615921 4.996109 -9.629086
v 3.636905 4.996110 -9.608101
v 3.636905 5.017093 -9.629086
v 3.678882 5.017094 -9.629086
v 3.678882 4.996110 -9.608101
v 3.699866 4.996109 -9.629086
v 3.615921 4.996109 -11.132475
v 3.636905 5.017093 -11.132475
v 3.636905 4.996110 -11.153462
v 3.678882 4.996110 -11.153462
v 3.678882 5.017094 -11.132475
v 3.699866 4.996109 -11.132475
v 3.615921 3.492719 -11.132475
v 3.636905 3.492719 -11.153462
v 3.636905 3.471735 -11.132475
v 3.678882 3.471735 -11.132475
v 3.678882 3.492719 -11.153462
v 3.699866 3.492719 -11.132475
vt 0.437494 0.996605
vt 0.375000 0.996605
vt 0.375000 0.753395
vt 0.437494 0.000000
vt 0.437494 0.003395
vt 0.625000 0.996605
vt 0.562507 0.996605
vt 0.625000 0.753395
vt 0.628395 0.003395
vt 0.375000 0.253395
vt 0.375000 0.496605
vt 0.437494 0.246605
vt 0.562506 0.246605
vt 0.625000 0.253395
vt 0.375000 0.503395
vt 0.375000 0.746605
vt 0.437494 0.496605
vt 0.562506 0.496605
vt 0.625000 0.503395
vt 0.625000 0.746605
vt 0.437494 0.746605
vt 0.562506 0.746605
vt 0.562507 0.753395
vt 0.562506 0.003395
vt 0.437494 0.253395
vt 0.562506 0.253395
vt 0.437494 0.503395
vt 0.562506 0.503395
vt 0.437494 0.753395
vt 0.871605 0.003395
vt 0.871605 0.246605
vt 0.128395 0.003395
vt 0.371605 0.003395
vt 0.371605 0.246605
vt 0.128395 0.246605
vt 0.562507 0.000000
vt 0.628395 0.246605
vt 0.625000 0.496605
vn -0.707110 -0.707104 0.000000
vn -0.707110 -0.707104 0.000000
vn -0.707110 -0.707104 0.000000
vn -0.707110 -0.707104 0.000000
vn 0.000000 -0.707128 0.707086
vn 0.000000 -0.707128 0.707086
vn 0.000000 -0.707128 0.707086
vn 0.000000 -0.707128 0.707086
vn -0.707128 0.000000 0.707086
vn -0.707128 0.000000 0.707086
vn -0.707128 0.000000 0.707086
vn -0.707128 0.000000 0.707086
vn 0.707105 -0.707109 0.000000
vn 0.707105 -0.707109 0.000000
vn 0.707105 -0.707109 0.000000
vn 0.707105 -0.707109 0.000000
vn 0.707126 0.000000 0.707088
vn 0.707126 0.000000 0.707088
vn 0.707126 0.000000 0.707088
vn 0.707126 0.000000 0.707088
vn -0.707091 0.707122 0.000000
vn -0.707091 0.707122 0.000000
vn -0.707091 0.707122 0.000000
vn -0.707091 0.707122 0.000000
vn -0.000003 0.707146 0.707068
vn -0.000003 0.707146 0.707068
vn -0.000003 0.707146 0.707068
vn -0.000003 0.707146 0.707068
vn 0.707113 0.707101 0.000000
vn 0.707113 0.707101 0.000000
vn 0.707113 0.707101 0.000000
vn 0.707113 0.707101 0.000000
vn -0.707171 -0.000000 -0.707043
vn -0.707171 -0.000000 -0.707043
vn -0.707171 -0.000000 -0.707043
vn -0.707171 -0.000000 -0.707043
vn -0.000012 0.707179 -0.707035
vn -0.000012 0.707179 -0.707035
vn -0.000012 0.707179 -0.707035
vn -0.000012 0.707179 -0.707035
vn 0.707169 0.000000 -0.707045
vn 0.707169 0.000000 -0.707045
vn 0.707169 0.000000 -0.707045
vn 0.707169 0.000000 -0.707045
vn 0.000000 -0.707161 -0.707053
vn 0.000000 -0.707161 -0.707053
vn 0.000000 -0.707161 -0.707053
vn 0.000000 -0.707161 -0.707053
vn 0.000000 0.000000 1.000000
vn 0.000000 0.000000 1.000000
vn 0.000000 0.000000 1.000000
vn 0.000000 0.000000 1.000000
vn -0.000023 1.000000 0.000000
vn -0.000023 1.000000 0.000000
vn -0.000023 1.000000 0.000000
vn -0.000023 1.000000 0.000000
vn 0.000000 0.000000 -1.000000
vn 0.000000 0.000000 -1.000000
vn 0.000000 0.000000 -1.000000
vn 0.000000 0.000000 -1.000000
vn 0.000000 -1.000000 0.000000
vn 0.000000 -1.000000 0.000000
vn 0.000000 -1.000000 0.000000
vn 0.000000 -1.000000 0.000000
vn 1.000000 0.000000 0.000000
vn 1.000000 0.000000 0.000000
vn 1.000000 0.000000 0.000000
vn 1.000000 0.000000 0.000000
vn -1.000000 -0.000000 0.000000
vn -1.000000 -0.000000 0.000000
vn -1.000000 -0.000000 0.000000
vn -1.000000 -0.000000 0.000000
vn -0.577383 -0.577363 0.577305
vn -0.577383 -0.577363 0.577305
vn -0.577383 -0.577363 0.577305
vn 0.577389 -0.577350 0.577311
vn 0.577389 -0.577350 0.577311
vn 0.577389 -0.577350 0.577311
vn -0.577389 0.577370 0.577292
vn -0.577389 0.577370 0.577292
vn -0.577389 0.577370 0.577292
vn 0.577383 0.577344 0.577324
vn 0.577383 0.577344 0.577324
vn 0.577383 0.577344 0.577324
vn -0.577400 0.577394 -0.577257
vn -0.577400 0.577394 -0.577257
vn -0.577400 0.577394 -0.577257
vn 0.577393 0.577368 -0.577290
vn 0.577393 0.577368 -0.577290
vn 0.577393 0.577368 -0.577290
vn -0.577396 -0.577376 -0.577279
vn -0.577396 -0.577376 -0.577279
vn -0.577396 -0.577376 -0.577279
vn 0.577396 -0.577376 -0.577279
vn 0.577396 -0.577376 -0.577279
vn 0.577396 -0.577376 -0.577279
s off
g pCube18
usemtl initialShadingGroup
f 1/1/1 3/2/2 19/3/3 21/29/4
f 2/5/5 1/4/6 6/36/7 5/24/8
f 3/33/9 2/5/10 8/12/11 7/34/12
f 4/6/13 6/7/14 22/23/15 24/8/16
f 5/24/17 4/9/18 12/37/19 11/13/20
f 7/10/21 9/25/22 14/17/23 13/11/24
f 9/25/25 8/12/26 11/13/27 10/26/28
f 10/26/29 12/14/30 18/38/31 17/18/32
f 13/15/33 15/27/34 20/21/35 19/16/36
f 15/27/37 14/17/38 17/18/39 16/28/40
f 16/28/41 18/19/42 24/20/43 23/22/44
f 21/29/45 20/21/46 23/22/47 22/23/48
f 2/5/49 5/24/50 11/13/51 8/12/52
f 9/25/53 10/26/54 17/18/55 14/17/56
f 15/27/57 16/28/58 23/22/59 20/21/60
f 21/29/61 22/23/62 6/7/63 1/1/64
f 4/9/65 24/30/66 18/31/67 12/37/68
f 19/32/69 3/33/70 7/34/71 13/35/72
f 1/4/73 2/5/74 3/33/75
f 4/9/76 5/24/77 6/36/78
f 7/34/79 8/12/80 9/25/81
f 10/26/82 11/13/83 12/37/84
f 13/11/85 14/17/86 15/27/87
f 16/28/88 17/18/89 18/38/90
f 19/16/91 20/21/92 21/29/93
f 22/23/94 23/22/95 24/20/96
